<?xml version="1.0" encoding="utf-8"?>
<!-- Generator: Adobe Illustrator 25.0.0, SVG Export Plug-In . SVG Version: 6.00 Build 0)  -->
<svg version="1.1" id="Layer_1" xmlns="http://www.w3.org/2000/svg" xmlns:xlink="http://www.w3.org/1999/xlink" x="0px" y="0px"
	 viewBox="0 0 1048 628.47" style="enable-background:new 0 0 1048 628.47;" xml:space="preserve">
<g>
	<path fill="white" d="M560.64,617.57c0-99.73,0-197.27,0-296.31c4.51-0.3,8.93-0.86,13.34-0.86c73.2-0.05,146.4-0.04,219.6-0.04
		c49.72,0,99.45,0.3,149.17-0.25c10.07-0.11,12.43,3.52,12.39,13.83c-0.19,42.43,0.49,84.86,0.66,127.29
		c0.36,89.12-52.57,142.2-106.83,153.84c-15.14,3.25-31.05,3.15-46.61,3.16c-75.68,0.05-151.35-0.39-227.03-0.66
		C570.8,617.56,566.26,617.57,560.64,617.57z M628.56,330.12c0,92.91,0,185.18,0,278.26c4.3,0,7.81,0,11.31,0
		c61.1,0,122.21,0.1,183.31-0.03c65.88-0.14,123.07-62.24,123.26-133.8c0.12-44.36,0.04-88.72,0-133.08c0-3.71-0.35-7.42-0.55-11.35
		C839.62,330.12,734.29,330.12,628.56,330.12z"/>
	<path fill="white" d="M887.83,309.36c-109.34,0-217.62,0-326.75,0c0-95.67,0-191.11,0-288.01c3.89,0,7.68,0,11.46,0c61.14,0,122.28,0,183.42,0
		c70.66,0,128.47,58.05,131.5,135C889.44,206.8,887.83,257.42,887.83,309.36z M628.43,299.42c2.66,0.43,4.72,1.05,6.79,1.05
		c78.52,0.06,157.03-0.02,235.55,0.2c7.9,0.02,9.32-3.82,9.28-11.26c-0.23-42.06,0.37-84.13-0.24-126.18
		c-1.08-75.16-55.86-133.17-125.23-133.32c-38.03-0.08-76.05-0.02-114.08-0.02c-3.8,0-7.61,0-12.08,0
		C628.43,120.25,628.43,209.22,628.43,299.42z"/>
	<path fill="white" d="M16.09,615.36c17.19-21.95,34.28-43.98,51.58-65.83c59-74.55,118.02-149.09,177.28-223.4c2.56-3.21,7.56-5.85,11.43-5.86
		c95.59-0.32,191.18-0.25,286.76-0.21c2.43,0,4.86,0.5,8.05,0.84c0,98.44,0,196.55,0,295.49c-21.54,0-42.61,0-64.64,0
		c0-95.58,0-190.35,0-286.53c-4.61-0.28-8.33-0.7-12.06-0.7c-71.07-0.04-142.14,0.07-213.21-0.17c-7.34-0.02-12.14,2.2-17.11,8.54
		C187.38,410.06,130.19,482.22,73.13,554.5c-14.55,18.43-28.9,37.06-43.69,55.27c-2.96,3.64-7.51,5.75-11.32,8.57
		C17.45,617.34,16.77,616.35,16.09,615.36z"/>
	<path fill="white" d="M256.74,309.22c11.28-14.46,21.23-27.35,31.32-40.12c63.57-80.46,127.15-160.92,190.87-241.25
		c2.29-2.89,6.07-6.12,9.23-6.2c20.53-0.56,41.08-0.29,62.37-0.29c0,96.38,0,191.81,0,287.85
		C453.13,309.22,356.23,309.22,256.74,309.22z M485.01,34.96c-0.71-0.51-1.42-1.01-2.13-1.52
		c-69.49,88.09-138.99,176.19-209.94,266.13c72.18,0,141.85,0,212.06,0C485.01,210.7,485.01,122.83,485.01,34.96z"/>
</g>
</svg>
