<?xml version="1.0" encoding="utf-8"?>
<!-- Generator: Adobe Illustrator 25.0.0, SVG Export Plug-In . SVG Version: 6.00 Build 0)  -->
<svg version="1.1" id="Layer_1" xmlns="http://www.w3.org/2000/svg" xmlns:xlink="http://www.w3.org/1999/xlink" x="0px" y="0px"
	 viewBox="0 0 1000 1000" style="enable-background:new 0 0 1000 1000;" xml:space="preserve">
<style type="text/css">
	.st0{clip-path:url(#SVGID_1_);}
	.st1{fill-rule:evenodd;clip-rule:evenodd;fill:white;}
</style>
<g>
	<defs>
		<rect id="SVGID_3_" x="-4" width="1036" height="1000"/>
	</defs>
	<clipPath id="SVGID_1_">
		<use xlink:href="#SVGID_3_"  style="overflow:visible;"/>
	</clipPath>
	<g class="st0">
		<path class="st1" d="M503.04,39.47c125.29,0.58,246.2,48.07,336.64,131.75c92.62,85.71,146,200.63,150.66,324.4
			c4.56,120.87-39.16,239.59-122.07,330.26c-90.94,99.44-217.43,156.56-354.06,160.34c-4.68,0.13-9.35,0.2-14.03,0.2
			c-73.62,0-146.55-16.03-212.6-46.7L30.83,994.84c-2.05,0.38-4.03-0.91-4.42-2.88c-0.08-0.39-0.09-0.79-0.04-1.18l43.37-250.6
			C32.73,674.9,12.07,601.35,9.84,526.52C6.08,400.1,53.55,279.84,143.51,187.89c93.27-95.34,220.63-148.42,357.1-148.42
			C500.61,39.47,503.04,39.47,503.04,39.47z M500.31,121.62c-3.93,0-7.85,0.05-11.78,0.16c-223.45,6.19-400.03,186.7-393.62,402.38
			c1.96,65.86,21.18,130.5,55.59,186.95l7.47,12.24l-32.14,170.05l174.34-39.73l13.17,6.62c57.44,28.85,121.81,43.97,186.84,43.97
			c3.86,0,7.74-0.05,11.6-0.16c223.46-6.19,400.03-186.69,393.62-402.38C899.1,289.85,718.52,121.62,500.31,121.62z M330.73,284.22
			c8.2,0.25,16.41,0.47,23.58,0.98c8.76,0.6,18.45,1.29,27.04,21.37c10.2,23.84,32.25,83.35,35.13,89.39
			c2.89,6.04,4.72,13.04,0.36,20.86c-4.36,7.81-6.57,12.7-12.93,19.46c-6.37,6.76-13.43,15.12-19.13,20.28
			c-6.36,5.75-12.98,12-6.17,24.1c6.8,12.12,30.26,51.77,65.85,84.38c45.74,41.9,82.42,55.73,96.99,62.28
			c5.26,2.37,9.63,3.49,13.44,3.49c5.24,0,9.43-2.12,13.43-6.03c7.67-7.5,30.73-33.48,40.45-45.43c5.08-6.25,9.68-8.47,14.68-8.47
			c4,0,8.25,1.42,13.21,3.33c11.15,4.3,70.75,34.86,82.87,41.17c12.12,6.31,20.23,9.53,23.15,14.57c2.92,5.07,2.16,28.86-8.98,56.32
			c-11.14,27.46-62.24,52.75-84.87,54.06c-6.63,0.38-13.14,1.28-21.63,1.28c-20.51,0-52.49-5.21-125.12-35.41
			C378.5,654.83,303.45,528.6,297.54,520.49c-5.89-8.12-48.2-65.96-46.34-124.47c1.86-58.5,34.58-86.33,46.24-97.89
			c11.18-11.09,23.99-13.92,32.26-13.92C329.7,284.21,330.73,284.23,330.73,284.22z"/>
	</g>
</g>
<g>
</g>
<g>
</g>
<g>
</g>
<g>
</g>
<g>
</g>
<g>
</g>
<g>
</g>
<g>
</g>
<g>
</g>
<g>
</g>
<g>
</g>
<g>
</g>
<g>
</g>
<g>
</g>
<g>
</g>
</svg>
